# xmcd
#
# Track frame offsets:
#	182
#	13580
#	24757
#	37620
#	50015
#	67755
#	81500
#	96145
#	108282
#	122125
#	133132
#	154472
#	167850
#	181207
#	192387
#	204295
#	218165
#	229990
#
# Disc length: 3243 seconds
#
# Revision: 3
# Processed by: cddbd v1.5.2PL0 Copyright (c) Steve Scherf et al.
# Submitted via: audiograbber 1.83.01
#
DISCID=f00ca912
DTITLE=Tanya Tucker - The Country Store Collection
DYEAR=1989
DGENRE=Country
TTITLE0=Delta Dawn
TTITLE1=Bed Of Roses
TTITLE2=Why Me Lord
TTITLE3=You Are So Beautiful
TTITLE4=The Best Of My Love
TTITLE5=Loving Arms
TTITLE6=Almost Persuaded
TTITLE7=I'll Be Your Lady
TTITLE8=Blood Red And Going Down
TTITLE9=Pass By Me
TTITLE10=How Can I Tell Him
TTITLE11=Let Me Be There
TTITLE12=Jamestown Ferry
TTITLE13=Guess I'll To Love Him More
TTITLE14=The Chokin Kind
TTITLE15=I Believe The South Is Gonna Rise Again
TTITLE16=What If We Were Running Out Of Love
TTITLE17=I'am So Lonesome I Could Cry
EXTD=CASTLE Communikations PLC, 1989
EXTT0=
EXTT1=
EXTT2=
EXTT3=
EXTT4=
EXTT5=
EXTT6=
EXTT7=
EXTT8=
EXTT9=
EXTT10=
EXTT11=
EXTT12=
EXTT13=
EXTT14=
EXTT15=
EXTT16=
EXTT17=
PLAYORDER=
